<svg width="30" height="43" viewBox="0 0 30 43" fill="none" xmlns="http://www.w3.org/2000/svg">
<path d="M20.3333 5.375C20.3333 8.34385 17.9416 10.75 14.9999 10.75C12.0583 10.75 9.66661 8.34385 9.66661 5.375C9.66661 2.40615 12.0583 0 14.9999 0C17.9416 0 20.3333 2.40615 20.3333 5.375ZM11.9749 14.2941C12.9416 14.5377 13.9666 14.7812 15.0166 14.7812C18.3416 14.7812 21.4416 13.0848 23.2499 10.2797L24.7666 7.93988C25.5666 6.69607 27.2166 6.34418 28.4583 7.15379C29.6916 7.9634 30.0416 9.62461 29.2333 10.876L27.7249 13.2107C26.1999 15.5707 24.0999 17.41 21.6666 18.6109V22.5V32.25V40.3125C21.6666 41.799 20.4749 43 18.9999 43C17.5249 43 16.3333 41.799 16.3333 40.3125V32.25H13.6666V40.3125C13.6666 41.799 12.4749 43 10.9999 43C9.52494 43 8.33328 41.799 8.33328 40.3125V32.25V29.5V22.5V18.5941C5.96911 17.4184 3.91161 15.6295 2.40578 13.2779L0.780778 10.9012C-0.0358883 9.6582 0.294945 7.99363 1.52078 7.16975C2.74578 6.3467 4.40161 6.68012 5.21828 7.91553L6.84328 10.3721C8.04161 12.1777 9.76661 13.5131 11.7416 14.2186C11.8249 14.2354 11.8999 14.2605 11.9749 14.2941Z" fill="#7AC2C2"/>
<path d="M8.33328 32.25V29.5V22.5L4.92703 27.375L1.52078 32.25H8.33328Z" fill="#7AC2C2"/>
<path d="M28.4583 32.25L21.6666 22.5V32.25H28.4583Z" fill="#7AC2C2"/>
</svg>
