<svg width="41" height="41" viewBox="0 0 41 41" fill="none" xmlns="http://www.w3.org/2000/svg">
<path d="M17.9135 10.4742L11.9397 0.622207C11.7796 0.23615 11.3631 7.9849e-09 10.9147 7.9849e-09H1.28371C0.2467 7.9849e-09 -0.360292 1.16754 0.234688 2.01637L9.14738 14.7408C11.5233 12.5242 14.5503 10.9947 17.9135 10.4742ZM20.5001 12.8125C12.7125 12.8125 6.40631 19.1187 6.40631 26.9062C6.40631 34.6938 12.7165 41 20.5001 41C28.2837 41 34.5938 34.6938 34.5938 26.9062C34.5938 19.1187 28.2917 12.8125 20.5001 12.8125ZM27.9073 25.4088L24.8739 28.3717L25.5846 32.5558C25.7147 33.2965 24.924 33.877 24.2529 33.5167L20.4989 31.5452L16.7444 33.5127C16.0737 33.873 15.283 33.2925 15.4127 32.5518L16.1234 28.3677L13.09 25.4048C12.5403 24.8723 12.8526 23.9434 13.6053 23.8313L17.7998 23.2207L19.6753 19.4189C19.8354 19.0786 20.1657 18.9084 20.4961 18.9084C20.8264 18.9084 21.1567 19.0826 21.3169 19.4189L23.1987 23.2227L27.3932 23.8333C28.1555 23.9434 28.4598 24.8723 27.9073 25.4088ZM39.6467 7.9849e-09H30.0854C29.8641 -2.46966e-05 29.6466 0.0572766 29.4541 0.166319C29.2615 0.275362 29.1005 0.432427 28.9867 0.622207L23.0802 10.3997C26.4435 10.9203 29.4768 12.4513 31.8487 14.6743L40.7614 1.9499C41.3604 1.16754 40.7518 7.9849e-09 39.6467 7.9849e-09Z" fill="#7AC2C2"/>
</svg>
