<svg width="52" height="36" viewBox="0 0 52 36" fill="none" xmlns="http://www.w3.org/2000/svg">
<path d="M9.5 18C14.0563 18 17.75 14.3063 17.75 9.75C17.75 5.19365 14.0563 1.5 9.5 1.5C4.94365 1.5 1.25 5.19365 1.25 9.75C1.25 14.3063 4.94365 18 9.5 18Z" stroke="#7AC2C2" stroke-width="2" stroke-linecap="round" stroke-linejoin="round"/>
<path d="M42.5 18C47.0563 18 50.75 14.3063 50.75 9.75C50.75 5.19365 47.0563 1.5 42.5 1.5C37.9437 1.5 34.25 5.19365 34.25 9.75C34.25 14.3063 37.9437 18 42.5 18Z" stroke="#7AC2C2" stroke-width="2" stroke-linecap="round" stroke-linejoin="round"/>
<path d="M26 18C30.5563 18 34.25 14.3063 34.25 9.75C34.25 5.19365 30.5563 1.5 26 1.5C21.4437 1.5 17.75 5.19365 17.75 9.75C17.75 14.3063 21.4437 18 26 18Z" stroke="#7AC2C2" stroke-width="2" stroke-linecap="round" stroke-linejoin="round"/>
<path d="M17.75 34.5C22.3063 34.5 26 30.8063 26 26.25C26 21.6937 22.3063 18 17.75 18C13.1937 18 9.5 21.6937 9.5 26.25C9.5 30.8063 13.1937 34.5 17.75 34.5Z" stroke="#7AC2C2" stroke-width="2" stroke-linecap="round" stroke-linejoin="round"/>
<path d="M34.25 34.5C38.8063 34.5 42.5 30.8063 42.5 26.25C42.5 21.6937 38.8063 18 34.25 18C29.6937 18 26 21.6937 26 26.25C26 30.8063 29.6937 34.5 34.25 34.5Z" stroke="#7AC2C2" stroke-width="2" stroke-linecap="round" stroke-linejoin="round"/>
</svg>
