<svg width="40" height="40" viewBox="0 0 40 40" fill="none" xmlns="http://www.w3.org/2000/svg">
<g clip-path="url(#clip0_6_71)">
<rect width="40" height="40" rx="20" fill="#F35E1F"/>
<path d="M30.2799 13.3186C26.8394 7.99982 19.815 6.41856 14.3675 9.72484C9.06338 13.0311 7.34312 20.2187 10.7836 25.5375L11.0704 25.9687L9.92351 30.2812L14.2242 29.1312L14.6542 29.4187C16.5178 30.425 18.5248 31 20.5318 31C22.6821 31 24.8324 30.425 26.696 29.275C32.0002 25.825 33.5771 18.7812 30.2799 13.3186ZM27.2695 24.3874C26.696 25.25 25.9793 25.825 24.9758 25.9687C24.4024 25.9687 23.6856 26.2562 20.8185 25.1062C18.3815 23.9562 16.3745 22.0874 14.9409 19.9312C14.0808 18.9249 13.6507 17.6311 13.5074 16.3374C13.5074 15.1874 13.9375 14.1811 14.6542 13.4624C14.9409 13.1749 15.2276 13.0311 15.5144 13.0311H16.2311C16.5178 13.0311 16.8046 13.0311 16.9479 13.6061C17.2346 14.3249 17.9514 16.0499 17.9514 16.1936C18.0947 16.3374 18.0947 16.6249 17.9514 16.7686C18.0947 17.0561 17.9514 17.3436 17.808 17.4874C17.6647 17.6311 17.5213 17.9187 17.378 18.0624C17.0913 18.2062 16.9479 18.4937 17.0913 18.7812C17.6647 19.6437 18.3815 20.5062 19.0982 21.2249C19.9584 21.9437 20.8185 22.5187 21.822 22.9499C22.1087 23.0937 22.3954 23.0937 22.5387 22.8062C22.6821 22.5187 23.3989 21.7999 23.6856 21.5124C23.9723 21.2249 24.1157 21.2249 24.4024 21.3687L26.696 22.5187C26.9828 22.6624 27.2695 22.8062 27.4128 22.9499C27.5562 23.3812 27.5562 23.9562 27.2695 24.3874Z" fill="white"/>
</g>
<defs>
<clipPath id="clip0_6_71">
<rect width="40" height="40" rx="20" fill="white"/>
</clipPath>
</defs>
</svg>
