<svg width="224" height="49" viewBox="0 0 224 49" fill="none" xmlns="http://www.w3.org/2000/svg">
<path d="M46.76 39V11H58.28C60.76 11 62.88 11.4 64.64 12.2C66.4267 13 67.8 14.1467 68.76 15.64C69.72 17.1333 70.2 18.9067 70.2 20.96C70.2 23.0133 69.72 24.7867 68.76 26.28C67.8 27.7467 66.4267 28.88 64.64 29.68C62.88 30.4533 60.76 30.84 58.28 30.84H49.64L51.96 28.48V39H46.76ZM65.08 39L58 28.84H63.56L70.68 39H65.08ZM51.96 29.04L49.64 26.56H58.04C60.3333 26.56 62.0533 26.0667 63.2 25.08C64.3733 24.0933 64.96 22.72 64.96 20.96C64.96 19.1733 64.3733 17.8 63.2 16.84C62.0533 15.88 60.3333 15.4 58.04 15.4H49.64L51.96 12.84V29.04ZM80.8178 22.64H94.7378V26.92H80.8178V22.64ZM81.2178 34.64H97.0178V39H76.0178V11H96.4578V15.36H81.2178V34.64ZM115.775 39.4C113.641 39.4 111.655 39.0533 109.815 38.36C108.001 37.64 106.415 36.64 105.055 35.36C103.721 34.0533 102.681 32.52 101.935 30.76C101.188 29 100.815 27.08 100.815 25C100.815 22.92 101.188 21 101.935 19.24C102.681 17.48 103.735 15.96 105.095 14.68C106.455 13.3733 108.041 12.3733 109.855 11.68C111.668 10.96 113.655 10.6 115.815 10.6C118.108 10.6 120.201 11 122.095 11.8C123.988 12.5733 125.588 13.7333 126.895 15.28L123.535 18.44C122.521 17.3467 121.388 16.5333 120.135 16C118.881 15.44 117.521 15.16 116.055 15.16C114.588 15.16 113.241 15.4 112.015 15.88C110.815 16.36 109.761 17.04 108.855 17.92C107.975 18.8 107.281 19.84 106.775 21.04C106.295 22.24 106.055 23.56 106.055 25C106.055 26.44 106.295 27.76 106.775 28.96C107.281 30.16 107.975 31.2 108.855 32.08C109.761 32.96 110.815 33.64 112.015 34.12C113.241 34.6 114.588 34.84 116.055 34.84C117.521 34.84 118.881 34.5733 120.135 34.04C121.388 33.48 122.521 32.64 123.535 31.52L126.895 34.72C125.588 36.24 123.988 37.4 122.095 38.2C120.201 39 118.095 39.4 115.775 39.4ZM144.411 39.4C142.225 39.4 140.211 39.04 138.371 38.32C136.531 37.6 134.931 36.6 133.571 35.32C132.211 34.0133 131.158 32.4933 130.411 30.76C129.665 29 129.291 27.08 129.291 25C129.291 22.92 129.665 21.0133 130.411 19.28C131.158 17.52 132.211 16 133.571 14.72C134.931 13.4133 136.531 12.4 138.371 11.68C140.211 10.96 142.211 10.6 144.371 10.6C146.558 10.6 148.558 10.96 150.371 11.68C152.211 12.4 153.811 13.4133 155.171 14.72C156.531 16 157.585 17.52 158.331 19.28C159.078 21.0133 159.451 22.92 159.451 25C159.451 27.08 159.078 29 158.331 30.76C157.585 32.52 156.531 34.04 155.171 35.32C153.811 36.6 152.211 37.6 150.371 38.32C148.558 39.04 146.571 39.4 144.411 39.4ZM144.371 34.84C145.785 34.84 147.091 34.6 148.291 34.12C149.491 33.64 150.531 32.96 151.411 32.08C152.291 31.1733 152.971 30.1333 153.451 28.96C153.958 27.76 154.211 26.44 154.211 25C154.211 23.56 153.958 22.2533 153.451 21.08C152.971 19.88 152.291 18.84 151.411 17.96C150.531 17.0533 149.491 16.36 148.291 15.88C147.091 15.4 145.785 15.16 144.371 15.16C142.958 15.16 141.651 15.4 140.451 15.88C139.278 16.36 138.238 17.0533 137.331 17.96C136.451 18.84 135.758 19.88 135.251 21.08C134.771 22.2533 134.531 23.56 134.531 25C134.531 26.4133 134.771 27.72 135.251 28.92C135.758 30.12 136.451 31.1733 137.331 32.08C138.211 32.96 139.251 33.64 140.451 34.12C141.651 34.6 142.958 34.84 144.371 34.84ZM164.963 39V11H176.483C178.963 11 181.083 11.4 182.843 12.2C184.63 13 186.003 14.1467 186.963 15.64C187.923 17.1333 188.403 18.9067 188.403 20.96C188.403 23.0133 187.923 24.7867 186.963 26.28C186.003 27.7467 184.63 28.88 182.843 29.68C181.083 30.4533 178.963 30.84 176.483 30.84H167.843L170.163 28.48V39H164.963ZM183.283 39L176.203 28.84H181.763L188.883 39H183.283ZM170.163 29.04L167.843 26.56H176.243C178.536 26.56 180.256 26.0667 181.403 25.08C182.576 24.0933 183.163 22.72 183.163 20.96C183.163 19.1733 182.576 17.8 181.403 16.84C180.256 15.88 178.536 15.4 176.243 15.4H167.843L170.163 12.84V29.04ZM194.221 39V11H206.461C209.501 11 212.168 11.5867 214.461 12.76C216.754 13.9333 218.541 15.56 219.821 17.64C221.101 19.72 221.741 22.1733 221.741 25C221.741 27.8 221.101 30.2533 219.821 32.36C218.541 34.44 216.754 36.0667 214.461 37.24C212.168 38.4133 209.501 39 206.461 39H194.221ZM199.421 34.6H206.221C208.328 34.6 210.141 34.2 211.661 33.4C213.208 32.6 214.394 31.48 215.221 30.04C216.074 28.6 216.501 26.92 216.501 25C216.501 23.0533 216.074 21.3733 215.221 19.96C214.394 18.52 213.208 17.4 211.661 16.6C210.141 15.8 208.328 15.4 206.221 15.4H199.421V34.6Z" fill="white"/>
<path d="M9.34884 5.09766C9.05851 5.21486 8.94373 5.40367 8.82219 5.97662C8.76818 6.24356 8.70741 6.53004 8.68715 6.60817C8.65339 6.7514 8.62639 6.75791 7.75539 6.75791C6.33073 6.75791 5.64203 6.97928 4.93307 7.66292C4.48745 8.09263 4.23762 8.53536 4.08908 9.14738C3.94054 9.77242 3.9878 14.4797 4.1566 15.222C4.54821 16.9929 5.3787 18.4448 6.68858 19.6688C7.87692 20.7757 9.37585 21.57 10.8343 21.863C11.2191 21.9346 11.2259 21.9411 11.5702 22.4359C12.6438 23.9855 13.8186 25.0988 15.2703 25.9518C15.8105 26.2708 15.8915 26.3684 16.1818 27.1497C16.4654 27.918 16.6679 28.8491 16.7287 29.6824L16.7692 30.3075L16.2426 30.4833C15.1015 30.8674 14.271 31.4143 13.7309 32.1175L13.4338 32.5081L12.3467 32.5407C10.5169 32.5993 10.6115 32.443 10.6115 35.5487V37.873L9.57166 37.8926C7.97145 37.9251 8.04572 37.7819 8.05247 40.9201C8.05247 43.4919 8.07273 43.609 8.44408 43.8499L8.67365 43.9997H18.8961C30.1448 43.9997 29.4561 44.0257 29.6992 43.596C29.8072 43.4007 29.8207 43.1728 29.8207 40.9071C29.8207 38.6153 29.814 38.4134 29.6992 38.2441C29.4966 37.9447 29.2198 37.8795 28.2003 37.8795H27.2888V35.5487C27.2888 32.4626 27.3495 32.5798 25.702 32.5667C24.6285 32.5602 24.4529 32.5081 24.1356 32.098C23.6832 31.5185 23.1903 31.1213 22.5556 30.8283C22.2045 30.6656 21.7454 30.4768 21.5226 30.4182L21.1242 30.2945L21.1715 29.6304C21.2323 28.5951 21.5023 27.5274 21.921 26.6289C22.083 26.2773 22.137 26.2317 22.8527 25.789C24.2166 24.9426 25.3374 23.8813 26.2287 22.5857L26.6743 21.9476L27.2685 21.8044C28.889 21.4137 30.2596 20.6324 31.475 19.4149C32.6295 18.256 33.3993 16.8041 33.7504 15.1243C33.8516 14.6165 33.8719 14.1802 33.8719 11.9014C33.8719 9.29713 33.8719 9.25806 33.7098 8.82184C33.5073 8.23587 33.0347 7.64989 32.5012 7.29831C31.8868 6.89464 31.5492 6.81 30.2934 6.76443L29.2198 6.72536L29.0915 6.11335C28.9497 5.41018 28.8552 5.24741 28.5379 5.10417C28.3353 5.01302 27.363 5 18.9366 5C11.1179 5.00651 9.53115 5.01953 9.34884 5.09766ZM27.5048 6.67979C27.5318 6.70583 27.6263 7.21367 27.7074 7.79964C27.8357 8.72418 27.8559 9.16691 27.8627 10.9899C27.8627 12.8911 27.8492 13.2101 27.7006 14.1151C27.228 17.1166 25.9856 20.3329 24.6285 22.0583C22.4409 24.8319 19.9089 25.8801 17.2891 25.0793C15.7497 24.6105 14.6491 23.7837 13.373 22.1299C12.0699 20.4436 11.3474 18.9396 10.7195 16.5892C10.0038 13.9393 9.81473 11.2048 10.1388 8.18378C10.2604 7.09648 10.3144 6.77094 10.4021 6.69281C10.5034 6.60817 11.5365 6.59514 18.9839 6.61468C23.6427 6.6277 27.4778 6.65374 27.5048 6.67979ZM8.40357 8.72418C8.30229 9.39479 8.34956 12.7804 8.47784 13.6594C8.79519 15.8926 9.14629 17.2729 9.88225 19.2131C10.0308 19.6037 10.1321 19.9358 10.1186 19.9553C10.0443 20.0269 8.85595 19.3628 8.3293 18.9592C7.1207 18.0281 6.28346 16.765 5.87159 15.2545C5.73656 14.7792 5.72305 14.5188 5.7028 12.1619C5.66904 9.35572 5.68254 9.25806 6.04039 8.8609C6.39825 8.47026 6.67508 8.38562 7.6271 8.38562H8.45759L8.40357 8.72418ZM31.3737 8.50932C31.718 8.65907 32.0556 9.02367 32.1434 9.3427C32.2379 9.66824 32.2379 13.1971 32.1501 14.1802C32.0219 15.5345 31.691 16.5176 31.0361 17.4747C30.631 18.0607 29.7937 18.8615 29.2198 19.2196C28.8755 19.4344 27.8086 19.9748 27.7344 19.9748C27.7141 19.9748 27.7749 19.8056 27.8627 19.5972C28.5986 17.8458 29.186 15.554 29.4629 13.3338C29.5574 12.5786 29.5844 9.51849 29.4966 8.82184L29.4426 8.38562H30.2731C30.928 8.38562 31.1576 8.41166 31.3737 8.50932ZM19.9629 27.0521C19.8144 27.599 19.5983 28.7254 19.5645 29.1225C19.5375 29.3699 19.5038 29.689 19.4835 29.8257L19.443 30.0731L18.9636 30.0536L18.4775 30.034L18.2276 28.6342C18.0926 27.8659 17.9643 27.1563 17.9441 27.0521L17.9103 26.8763H18.9569H20.0102L19.9629 27.0521ZM20.9284 31.9417C21.2795 32.0589 21.7049 32.2347 21.8737 32.3323L22.191 32.5081L20.5503 32.5277C19.6456 32.5342 18.1871 32.5342 17.3094 32.5277L15.7092 32.5081L16.0738 32.3193C17.0798 31.8115 17.6875 31.6943 19.1189 31.7138C20.2465 31.7333 20.3275 31.7464 20.9284 31.9417ZM25.6008 35.9914V37.8144H18.9501H12.2994V35.9914V34.1684H18.9501H25.6008V35.9914ZM28.1665 40.9396V42.372H18.9501H9.7337V40.9396V39.5072H18.9501H28.1665V40.9396Z" fill="white"/>
<path d="M18.7813 9.99378C18.518 10.0849 18.2479 10.4626 17.701 11.5108C17.2351 12.3898 17.0596 12.6762 16.8975 12.7674C16.7692 12.839 16.2493 12.9432 15.4931 13.0473C13.7646 13.2882 13.4203 13.4705 13.5823 14.063C13.6498 14.2974 13.8186 14.4927 14.6964 15.3196C15.2636 15.86 15.7429 16.3613 15.7699 16.4395C15.797 16.5111 15.7362 16.9799 15.6349 17.4747C15.5404 17.976 15.4459 18.6466 15.4256 18.9787C15.3851 19.5581 15.3918 19.5777 15.5741 19.747C15.7362 19.9097 15.7902 19.9228 16.0805 19.8902C16.3776 19.8576 17.3499 19.4214 18.5112 18.8029C18.7611 18.6727 18.9366 18.6141 19.0446 18.6401C19.1324 18.6597 19.7468 18.9592 20.4153 19.2977C21.0837 19.6428 21.7252 19.9358 21.8399 19.9553C22.11 19.9944 22.5016 19.76 22.5692 19.5126C22.5962 19.4084 22.5489 18.9722 22.4544 18.4708C22.1843 16.9929 22.1438 16.6283 22.2248 16.4199C22.2653 16.3158 22.738 15.8079 23.2714 15.2871C24.2099 14.3755 24.3854 14.1412 24.3854 13.8286C24.3854 13.6463 24.0681 13.3468 23.7913 13.2752C23.6022 13.2231 22.3058 13.0213 21.4078 12.9106C20.9352 12.852 20.7259 12.6372 20.3275 11.7712C19.6186 10.2347 19.2607 9.8245 18.7813 9.99378ZM19.4295 12.839C19.9967 13.9849 20.0169 14.0044 21.239 14.1737C21.7522 14.2518 22.2113 14.3104 22.2653 14.3104C22.3193 14.3104 22.3598 14.33 22.3598 14.356C22.3598 14.3886 22.0493 14.6685 21.6779 14.9941C20.9689 15.6061 20.7394 15.9186 20.7394 16.2767C20.7394 16.3939 20.8136 16.8562 20.9014 17.3054C20.9892 17.7547 21.05 18.1323 21.0365 18.1453C21.023 18.1583 20.6381 17.976 20.1722 17.7351C18.9704 17.1296 19.0041 17.1296 17.8766 17.6961C17.3634 17.95 16.9313 18.1518 16.9178 18.1323C16.8975 18.1127 16.9313 17.8393 16.9853 17.5268C17.1608 16.5371 17.1811 16.2246 17.0933 15.9772C17.0393 15.8209 16.7827 15.528 16.2696 15.0592C15.8105 14.636 15.5606 14.369 15.6147 14.3495C15.7227 14.317 16.3709 14.2128 17.0866 14.1151C17.8766 14.0109 17.9711 13.9198 18.491 12.8716C18.7408 12.3767 18.9569 11.9666 18.9704 11.9666C18.9839 11.9666 19.1864 12.3572 19.4295 12.839Z" fill="white"/>
</svg>
