<?xml version="1.0" standalone="no"?>
<!DOCTYPE svg PUBLIC "-//W3C//DTD SVG 20010904//EN"
 "http://www.w3.org/TR/2001/REC-SVG-20010904/DTD/svg10.dtd">
<svg version="1.0" xmlns="http://www.w3.org/2000/svg"
 width="1248.000000pt" height="1248.000000pt" viewBox="0 0 1248.000000 1248.000000"
 preserveAspectRatio="xMidYMid meet">
<metadata>
Created by potrace 1.14, written by Peter Selinger 2001-2017
</metadata>
<g transform="translate(0.000000,1248.000000) scale(0.100000,-0.100000)"
fill="#000000" stroke="none">
<path d="M3688 12475 c-2 -2 -109 -5 -238 -9 -129 -3 -251 -9 -270 -12 -45 -7
-94 -38 -119 -73 -21 -29 -57 -115 -65 -153 -12 -57 -35 -165 -40 -188 -3 -14
-9 -39 -12 -57 -11 -61 -9 -60 -344 -68 -118 -3 -231 -7 -250 -10 -62 -9 -102
-15 -124 -20 -12 -3 -32 -7 -46 -9 -64 -11 -250 -89 -258 -108 -2 -5 -8 -8
-14 -8 -25 0 -182 -137 -253 -221 -83 -99 -169 -282 -190 -404 -15 -89 -20
-272 -19 -755 0 -766 15 -1070 61 -1240 8 -30 16 -66 19 -80 2 -14 7 -32 11
-40 3 -8 7 -19 9 -25 23 -87 106 -306 130 -342 8 -13 12 -23 10 -23 -8 0 97
-199 121 -230 6 -8 13 -19 14 -25 3 -13 70 -118 79 -125 4 -3 20 -25 35 -50
15 -25 31 -47 34 -50 3 -3 33 -39 66 -80 95 -119 316 -337 435 -430 25 -19 47
-38 48 -42 2 -4 8 -8 13 -8 8 0 35 -20 64 -47 8 -7 16 -13 20 -13 3 0 21 -11
38 -24 72 -54 410 -246 432 -245 5 0 24 -8 117 -50 26 -11 52 -21 58 -21 5 0
33 -11 62 -23 29 -13 58 -22 64 -20 6 2 23 -3 39 -11 16 -8 32 -13 37 -10 4 3
8 0 8 -6 0 -6 3 -9 8 -6 9 6 231 -47 259 -62 21 -12 82 -86 133 -164 14 -21
28 -38 33 -38 4 0 7 -6 7 -13 0 -7 8 -22 18 -33 9 -10 33 -39 52 -64 19 -25
38 -46 42 -48 5 -2 8 -8 8 -13 0 -8 12 -24 45 -63 6 -6 35 -41 65 -76 94 -111
267 -288 356 -365 31 -27 73 -65 93 -82 20 -18 39 -33 42 -33 3 0 19 -12 35
-26 26 -23 122 -93 162 -119 9 -5 21 -14 26 -18 41 -30 166 -107 175 -107 6 0
11 -4 11 -10 0 -5 5 -10 11 -10 23 0 140 -92 173 -136 19 -25 49 -80 67 -122
41 -98 119 -329 119 -353 0 -10 4 -20 10 -24 5 -3 7 -12 3 -20 -3 -8 -1 -15 3
-15 5 0 9 -10 10 -22 1 -13 8 -54 17 -93 17 -76 21 -101 38 -215 14 -94 16
-114 24 -225 4 -49 8 -105 10 -123 3 -39 0 -41 -127 -83 -180 -60 -344 -132
-446 -196 -29 -18 -55 -33 -58 -33 -5 0 -109 -76 -130 -95 -6 -5 -32 -28 -58
-50 -59 -50 -177 -188 -243 -284 -1 -2 -49 -5 -105 -7 -412 -11 -564 -18 -597
-29 -11 -3 -29 -8 -41 -10 -45 -9 -115 -80 -126 -127 -1 -5 -2 -9 -4 -10 -6
-9 -19 -90 -26 -164 -3 -38 -7 -360 -8 -716 -1 -356 -4 -649 -7 -652 -3 -4
-127 -8 -275 -11 -330 -7 -345 -8 -410 -40 -42 -20 -57 -35 -74 -70 -11 -24
-23 -56 -26 -72 -3 -15 -7 -35 -9 -43 -18 -61 -29 -1195 -12 -1232 5 -11 4
-18 -3 -18 -6 0 -8 -5 -4 -12 4 -6 9 -50 10 -97 1 -47 5 -104 8 -126 17 -121
36 -151 134 -213 l51 -33 3123 4 c1718 2 3164 6 3213 10 249 16 314 27 352 59
38 31 62 113 69 233 6 102 6 1264 0 1365 -7 117 -11 136 -32 168 -29 44 -47
60 -94 80 -71 30 -118 35 -405 38 l-270 3 -1 598 c-2 782 -9 893 -54 983 -48
93 -99 111 -345 116 -326 7 -410 13 -458 33 -16 6 -31 11 -33 11 -15 0 -80 60
-132 123 -61 73 -133 149 -191 200 -43 38 -188 136 -226 154 -16 7 -37 17 -45
22 -58 34 -216 98 -360 145 l-125 42 1 59 c4 132 19 304 40 430 21 128 84 375
110 432 8 17 14 37 14 45 0 8 5 19 12 26 7 7 9 12 5 12 -6 0 7 34 55 138 12
26 22 50 22 54 5 43 149 170 244 215 17 8 32 19 32 24 0 5 5 9 10 9 8 0 125
72 165 102 5 5 60 45 120 90 61 45 115 87 121 92 6 6 35 31 65 56 89 74 349
339 430 440 42 52 113 147 158 210 45 63 88 123 96 133 8 9 15 22 15 27 0 6 3
10 8 10 4 0 16 15 26 34 15 28 26 35 74 46 73 17 73 17 102 23 14 3 32 8 40
11 8 3 26 8 40 10 14 3 39 9 57 15 17 5 34 7 37 3 3 -3 6 -1 6 5 0 6 17 14 38
18 20 5 42 9 47 10 48 11 411 168 425 184 3 3 21 14 40 23 45 22 117 65 152
89 14 11 29 19 32 19 3 0 14 7 24 15 9 9 55 43 102 78 47 34 90 66 96 72 6 5
33 28 60 50 60 49 300 288 334 333 14 18 35 45 48 60 13 15 37 47 54 72 18 25
35 47 38 50 17 13 146 232 194 327 52 104 96 200 111 243 1 3 5 12 8 20 28 67
100 307 114 380 8 42 11 55 13 55 1 0 3 14 5 30 1 17 3 30 5 30 6 0 22 230 25
380 1 77 4 142 5 145 1 3 1 10 0 15 -6 30 -4 188 3 192 4 2 5 9 1 14 -9 15
-11 99 -3 105 4 2 4 17 0 32 -5 15 -5 36 -1 47 4 11 5 24 2 29 -9 15 -9 57 0
62 5 3 5 10 1 16 -8 14 -8 166 0 174 3 3 2 16 -2 28 -4 11 -6 37 -5 56 3 47 4
96 3 150 -1 25 -1 56 0 70 2 48 -8 278 -14 307 -3 15 -8 42 -11 58 -3 17 -11
36 -16 43 -6 6 -8 12 -5 12 20 0 -88 206 -153 291 -31 41 -134 144 -181 181
-45 37 -157 108 -169 108 -5 0 -24 9 -42 19 -86 50 -302 82 -580 85 -49 1 -88
3 -88 6 0 3 -50 5 -111 5 -110 0 -124 4 -128 38 0 4 -3 17 -6 30 -3 12 -7 33
-9 47 -32 191 -69 301 -114 348 -60 60 -79 67 -242 79 -64 5 -5437 13 -5442 8z
m86 -517 c10 10 2846 9 2846 -1 0 -5 5 -5 12 -1 16 10 141 10 157 0 6 -4 17
-4 24 1 7 5 23 8 37 6 34 -5 92 -3 101 2 4 3 17 1 30 -3 12 -5 41 -5 63 -1 23
4 45 4 51 1 14 -9 36 -9 63 0 12 4 22 4 22 0 0 -4 9 -8 20 -8 11 0 20 3 20 7
0 4 8 6 18 4 9 -2 17 -4 17 -5 0 -1 19 -2 43 -3 23 -2 42 1 42 6 0 4 8 4 17
-2 10 -5 26 -5 40 0 13 5 23 5 23 1 0 -4 24 -6 53 -4 28 1 57 3 62 3 6 -1 267
-3 580 -6 521 -5 831 -10 846 -14 3 0 12 -34 19 -73 7 -40 14 -82 16 -93 4
-21 32 -199 39 -250 4 -27 11 -99 21 -195 24 -256 24 -1382 -1 -1545 -4 -29
-11 -77 -21 -160 -5 -43 -12 -80 -14 -80 -1 0 -3 -16 -6 -35 -2 -19 -7 -46
-10 -60 -4 -14 -8 -36 -9 -50 -1 -14 -10 -61 -19 -105 -10 -44 -20 -91 -22
-104 -3 -12 -12 -53 -20 -90 -9 -36 -17 -70 -18 -76 -2 -5 -8 -28 -14 -50 -6
-22 -13 -51 -16 -65 -3 -14 -17 -65 -31 -115 -14 -49 -27 -94 -29 -100 -20
-71 -34 -116 -76 -242 -68 -205 -154 -432 -191 -505 -10 -21 -16 -38 -13 -38
4 0 0 -7 -7 -16 -7 -9 -14 -21 -15 -28 -3 -21 -164 -346 -207 -421 -23 -38
-42 -73 -42 -77 0 -4 -8 -17 -17 -28 -10 -11 -18 -22 -18 -25 0 -6 -105 -169
-120 -188 -6 -7 -30 -39 -55 -72 -60 -81 -55 -75 -98 -125 -239 -278 -441
-464 -672 -617 -119 -79 -298 -178 -308 -170 -2 1 -14 -5 -28 -15 -22 -14
-209 -82 -257 -93 -9 -2 -44 -11 -77 -19 -58 -14 -88 -19 -205 -36 -56 -8
-359 -6 -395 3 -11 3 -42 8 -70 11 -60 8 -155 30 -250 59 -38 12 -73 22 -77
23 -5 1 -9 2 -10 4 -2 1 -10 3 -18 5 -28 7 -95 33 -165 65 -38 17 -72 31 -75
31 -3 0 -12 7 -22 15 -9 9 -22 16 -30 18 -17 2 -91 47 -100 60 -4 6 -8 7 -8 3
0 -8 -127 76 -167 109 -12 11 -34 28 -49 39 -60 43 -258 233 -345 330 -113
128 -387 485 -371 485 4 0 2 4 -4 8 -15 9 -128 183 -194 297 -87 152 -269 542
-285 610 -1 6 -7 21 -12 35 -19 45 -101 293 -128 385 -27 92 -32 110 -39 145
-3 11 -7 24 -10 28 -3 5 -7 19 -10 33 -2 13 -18 80 -36 149 -43 175 -90 409
-105 524 -3 27 -8 52 -10 55 -1 3 -6 35 -10 71 -4 36 -8 67 -10 70 -3 4 -13
91 -20 175 -3 28 -8 86 -21 212 -4 43 -16 301 -15 338 0 6 0 19 0 30 0 11 0
102 -2 203 -1 100 0 182 3 182 3 0 5 48 6 108 0 96 3 149 19 357 5 74 15 170
31 300 3 28 7 68 10 90 2 22 7 56 10 75 3 19 7 49 10 65 3 29 7 49 19 107 7
29 27 50 54 55 9 2 60 5 114 7 53 2 100 6 104 9 3 4 11 2 18 -3 7 -5 15 -7 19
-2z m-913 -568 c1 -5 -10 -96 -18 -154 -6 -42 -11 -999 -5 -1010 3 -5 6 -54 8
-110 3 -122 12 -279 19 -325 2 -18 5 -51 7 -72 1 -21 4 -39 7 -39 4 0 6 -15 7
-33 0 -17 4 -52 8 -77 4 -25 9 -63 12 -85 3 -22 8 -51 11 -65 3 -14 7 -36 9
-50 1 -14 9 -60 18 -104 9 -43 14 -81 12 -84 -3 -2 -1 -12 3 -21 5 -9 11 -29
14 -46 3 -16 8 -41 12 -55 3 -14 8 -38 11 -54 2 -16 6 -32 8 -35 2 -3 7 -22
10 -41 3 -19 15 -71 26 -115 12 -44 25 -96 30 -115 5 -19 16 -60 25 -90 9 -30
18 -62 20 -70 7 -28 56 -185 64 -205 5 -11 14 -38 20 -60 7 -22 31 -89 53
-149 22 -60 41 -114 42 -120 1 -6 8 -21 14 -33 7 -13 10 -23 6 -23 -3 0 -2 -6
3 -12 9 -11 43 -102 49 -130 1 -5 2 -9 4 -10 1 -2 3 -10 5 -18 2 -8 8 -29 13
-47 13 -40 8 -44 -31 -30 -72 24 -397 207 -435 244 -7 7 -17 13 -21 13 -5 0
-24 13 -42 30 -19 16 -37 30 -40 30 -19 0 -198 168 -294 275 -15 17 -42 46
-61 67 -19 20 -34 39 -34 43 0 4 -11 21 -25 39 -14 17 -29 36 -33 41 -5 6 -17
24 -28 40 -10 17 -21 32 -24 35 -3 3 -16 25 -29 50 -14 25 -27 47 -30 50 -11
9 -124 244 -124 257 0 7 -5 13 -10 13 -6 0 -8 3 -4 6 3 4 0 19 -8 33 -18 36
-91 275 -99 326 -4 22 -9 71 -12 109 -2 38 -7 72 -10 77 -3 5 1 9 8 9 8 0 9 3
3 8 -14 9 -14 21 -18 787 -3 493 -1 681 8 743 13 83 40 162 57 162 4 0 8 4 8
10 0 21 112 122 158 142 26 12 49 21 52 21 3 -1 12 3 21 7 9 5 49 12 90 16 41
3 75 7 76 8 5 4 403 0 404 -4z m7199 -1 c0 -3 10 -5 23 -4 32 4 142 -33 166
-56 11 -11 24 -19 29 -19 20 0 116 -110 143 -166 25 -51 31 -77 37 -170 15
-233 6 -1327 -12 -1457 -2 -15 -7 -55 -11 -90 -4 -34 -11 -81 -16 -105 -5 -23
-12 -59 -15 -80 -3 -20 -10 -55 -16 -77 -6 -22 -11 -44 -13 -50 -8 -36 -17
-72 -22 -85 -3 -8 -7 -21 -9 -28 -1 -8 -6 -21 -10 -30 -4 -9 -9 -26 -11 -36
-2 -11 -8 -25 -13 -31 -5 -7 -7 -15 -3 -18 3 -4 1 -7 -5 -7 -7 0 -11 -3 -10
-7 2 -11 -9 -38 -44 -110 -16 -34 -30 -66 -30 -70 0 -4 -5 -14 -11 -22 -12
-15 -22 -30 -54 -87 -11 -22 -30 -50 -42 -63 -11 -13 -18 -28 -15 -32 3 -5 1
-9 -4 -9 -6 0 -18 -13 -29 -29 -54 -86 -353 -387 -421 -425 -9 -5 -23 -16 -31
-23 -47 -47 -392 -243 -427 -243 -7 0 -14 -4 -16 -8 -3 -8 -78 -45 -116 -56
l-22 -7 24 63 c14 35 44 113 68 173 23 61 45 112 48 115 3 3 6 12 7 20 1 8 16
56 33 105 30 87 34 98 40 120 2 6 14 42 27 80 14 39 26 79 28 90 1 11 3 20 4
20 2 0 4 9 6 19 2 10 10 40 19 65 13 40 41 147 51 191 2 8 17 69 33 135 32
129 55 232 55 253 0 6 4 12 9 12 5 0 7 4 4 9 -5 8 0 41 19 126 10 46 53 301
61 360 2 17 6 46 9 65 9 58 17 142 19 197 0 29 4 53 8 53 4 0 3 11 -2 24 -5
13 -6 27 -3 30 10 10 15 230 16 641 0 413 -8 624 -28 711 -2 12 -3 23 0 26 7
7 475 4 475 -3z m-4041 -5909 c11 -6 30 -6 50 0 17 5 33 5 35 1 5 -8 112 -5
126 4 6 4 10 2 10 -3 0 -6 14 -7 35 -2 19 4 35 4 35 -1 0 -4 10 -5 23 0 12 5
31 5 42 1 11 -4 29 -4 40 0 11 4 30 4 41 -1 12 -4 37 -4 57 1 28 6 37 4 41 -7
4 -8 4 -18 2 -22 -3 -4 -7 -18 -9 -32 -3 -13 -13 -53 -22 -89 -9 -36 -19 -78
-22 -95 -2 -16 -9 -48 -14 -70 -11 -47 -14 -63 -24 -130 -4 -27 -9 -54 -12
-58 -2 -4 -6 -21 -8 -38 -4 -32 -14 -100 -20 -139 -2 -14 -7 -54 -10 -89 -7
-66 -9 -90 -22 -181 -4 -30 -6 -58 -5 -61 1 -4 -14 -9 -33 -11 -19 -2 -35 -2
-35 2 0 3 -46 5 -103 5 -153 0 -143 -5 -158 79 -7 39 -14 82 -15 96 -1 14 -3
25 -4 25 -1 0 -3 11 -6 25 -2 14 -8 48 -14 75 -18 92 -21 110 -26 145 -2 19
-7 49 -11 65 -3 17 -7 37 -8 45 -1 8 -10 58 -20 110 -10 52 -19 105 -21 118
-9 49 -12 69 -19 102 -3 19 -8 47 -10 62 -2 15 -6 36 -10 47 -5 18 -2 20 28
18 19 -2 43 0 53 4 26 10 23 10 43 -1z m441 -1554 c137 -6 198 -11 228 -20 9
-3 33 -8 52 -11 19 -3 39 -10 44 -16 6 -5 22 -9 36 -9 14 0 30 -4 36 -8 5 -4
34 -16 64 -26 105 -36 333 -144 325 -155 -2 -3 -319 -7 -706 -9 -386 -2 -706
-5 -711 -8 -4 -3 -8 -2 -8 3 0 4 -137 8 -305 8 -237 0 -305 3 -305 12 0 7 3
12 8 11 4 -1 62 26 130 60 67 33 122 58 122 55 0 -3 7 0 15 7 8 7 15 9 15 4 0
-5 4 -3 8 3 4 7 17 14 27 16 11 1 25 5 30 9 6 3 49 15 95 27 129 30 185 38
330 47 52 4 96 7 97 8 3 2 236 -3 373 -8z m1891 -821 c0 -52 0 -1073 0 -1102
l-1 -23 -2127 0 -2128 0 1 573 c1 314 2 577 3 582 1 7 669 11 2126 11 l2125 0
1 -41z m-4859 -1670 c26 0 48 4 48 8 0 5 5 5 12 1 17 -11 248 -11 248 0 0 5 5
5 13 0 6 -5 44 -8 82 -7 39 2 78 3 88 3 9 0 82 0 162 0 80 0 151 0 158 0 6 0
63 -1 125 -3 61 -1 112 2 112 6 0 4 8 4 18 0 21 -11 103 -10 120 0 6 5 12 5
12 0 0 -4 52 -8 115 -8 63 0 115 4 115 8 0 5 5 5 12 1 16 -10 88 -11 88 -1 0
4 5 5 12 1 17 -11 108 -11 108 -1 0 5 5 5 12 1 17 -10 248 -11 248 -1 0 5 5 5
12 1 16 -10 88 -11 88 -1 0 4 8 4 18 0 21 -11 103 -10 120 0 6 5 12 5 12 0 0
-4 55 -7 122 -6 68 2 129 3 136 3 55 0 305 0 315 0 6 0 76 -1 155 -3 78 -1
142 2 142 6 0 5 5 5 12 1 16 -10 88 -11 88 -1 0 4 5 5 12 1 17 -11 108 -11
108 -1 0 5 5 5 12 1 17 -10 248 -11 248 -1 0 5 6 5 12 1 17 -11 148 -11 148
-1 0 4 5 5 12 1 16 -10 88 -11 88 -1 0 4 5 5 12 1 17 -11 108 -11 108 -1 0 5
5 5 12 1 17 -11 248 -11 248 0 0 5 5 5 13 0 6 -5 44 -8 82 -7 39 2 78 3 88 3
9 0 82 0 162 0 80 0 151 0 158 0 6 0 63 -1 125 -3 61 -1 112 2 112 6 0 4 8 4
18 0 21 -11 103 -10 120 0 6 5 12 5 12 0 0 -4 52 -8 115 -8 63 0 115 4 115 8
0 5 5 5 12 1 16 -10 88 -11 88 -1 0 4 5 5 12 1 17 -11 108 -11 108 0 0 5 6 4
13 -1 6 -5 49 -8 94 -8 67 1 82 -1 85 -14 2 -9 3 -214 3 -456 l-1 -440 -21 -1
c-12 -1 -29 -4 -38 -7 -10 -4 -14 -3 -9 4 5 8 1 8 -13 0 -11 -6 -23 -7 -27 -4
-9 9 -86 10 -86 0 0 -4 -7 -4 -17 1 -9 6 -29 6 -45 2 -15 -5 -28 -6 -28 -2 0
4 -16 7 -35 7 -19 0 -35 -4 -35 -8 0 -4 -8 -3 -19 2 -10 6 -20 8 -23 6 -6 -6
-57 -7 -90 -2 -16 2 -28 1 -28 -3 0 -6 -35 -6 -50 0 -14 6 -37 5 -52 -3 -10
-4 -18 -4 -18 0 0 9 -134 7 -157 -1 -7 -3 -13 -2 -13 2 0 4 -25 7 -55 7 -30 0
-55 -3 -55 -6 0 -4 -15 -4 -32 0 -18 4 -45 4 -60 0 -16 -4 -30 -4 -33 1 -5 8
-48 6 -64 -4 -5 -4 -12 -3 -15 2 -5 9 -88 7 -112 -2 -8 -3 -14 -2 -14 2 0 4
-16 7 -35 7 -19 0 -35 -4 -35 -8 0 -4 -8 -3 -19 2 -10 6 -20 8 -23 6 -6 -6
-57 -7 -90 -2 -16 2 -28 1 -28 -3 0 -6 -35 -6 -50 0 -14 6 -37 5 -52 -3 -10
-4 -18 -4 -18 0 0 9 -134 7 -157 -1 -7 -3 -13 -2 -13 2 0 4 -25 7 -55 7 -30 0
-55 -3 -55 -6 0 -4 -15 -4 -32 0 -18 4 -45 4 -60 0 -16 -4 -30 -4 -33 1 -5 8
-48 6 -64 -4 -5 -4 -12 -2 -15 2 -6 10 -48 8 -65 -2 -5 -4 -12 -2 -15 2 -6 10
-48 8 -65 -3 -6 -3 -11 -3 -11 2 0 8 -134 7 -157 -1 -7 -3 -13 -2 -13 2 0 4
-25 7 -55 7 -30 0 -55 -3 -55 -6 0 -4 -15 -4 -32 0 -18 4 -45 4 -60 0 -16 -4
-30 -4 -33 1 -5 8 -48 6 -64 -4 -5 -4 -12 -3 -14 2 -6 8 -132 6 -154 -2 -7 -3
-13 -2 -13 2 0 4 -25 7 -55 7 -30 0 -55 -4 -55 -8 0 -5 -5 -5 -11 -2 -13 9
-175 9 -188 0 -6 -3 -11 -3 -11 2 0 4 -25 8 -55 8 -30 0 -55 -4 -55 -8 0 -5
-5 -5 -11 -2 -14 9 -134 9 -148 1 -6 -4 -11 -4 -11 1 0 4 -16 8 -35 8 -19 0
-35 -4 -35 -8 0 -4 -8 -3 -19 2 -10 6 -20 8 -23 6 -6 -6 -57 -7 -90 -2 -16 2
-28 1 -28 -3 0 -6 -35 -6 -50 0 -14 6 -37 5 -52 -3 -10 -4 -18 -4 -18 0 0 9
-134 7 -157 -1 -7 -3 -13 -2 -13 2 0 4 -25 7 -55 7 -30 0 -55 -3 -55 -6 0 -4
-15 -4 -32 0 -18 4 -45 4 -60 0 -16 -4 -30 -4 -33 1 -5 8 -48 6 -64 -4 -5 -4
-12 -3 -15 2 -5 9 -88 7 -112 -2 -8 -3 -14 -2 -14 2 0 4 -16 7 -35 7 -19 0
-35 -4 -35 -8 0 -4 -8 -3 -19 2 -10 6 -20 8 -23 6 -6 -6 -57 -7 -90 -2 -16 2
-28 1 -28 -3 0 -4 -15 -4 -32 -1 -18 4 -48 4 -65 0 -18 -4 -33 -4 -33 0 0 3
-25 6 -55 6 -30 0 -55 -4 -55 -8 0 -5 -5 -5 -11 -2 -5 4 -48 7 -94 7 -46 0
-89 -3 -94 -7 -6 -3 -11 -3 -11 2 0 4 -25 8 -55 8 -30 0 -55 -3 -55 -6 0 -4
-15 -4 -32 0 -18 4 -45 4 -60 0 -16 -4 -30 -4 -33 1 -5 8 -48 5 -64 -5 -6 -3
-11 -3 -11 2 0 8 -134 7 -157 -1 -7 -3 -13 -2 -13 2 0 4 -25 7 -55 7 -30 0
-55 -3 -55 -6 0 -4 -15 -4 -32 0 -18 4 -45 4 -60 0 -15 -4 -29 -4 -33 -1 -3 4
-18 6 -33 7 l-27 0 0 456 0 456 72 -1 c40 -1 73 3 73 7 0 5 5 5 12 1 7 -4 34
-8 60 -9z"/>
<path d="M6209 10889 c-7 -4 -17 -5 -21 -3 -12 8 -68 -29 -104 -68 -34 -35
-134 -185 -173 -258 -13 -25 -33 -60 -43 -77 -11 -18 -16 -33 -11 -33 4 0 3
-4 -3 -8 -6 -4 -17 -20 -26 -37 -82 -162 -176 -320 -220 -370 -36 -41 -92 -65
-184 -81 -13 -2 -51 -8 -84 -14 -33 -6 -72 -12 -87 -15 -14 -2 -47 -7 -72 -11
-25 -3 -57 -8 -71 -10 -31 -5 -79 -12 -127 -19 -42 -6 -97 -15 -128 -22 -19
-4 -69 -13 -90 -17 -5 -1 -16 -5 -22 -9 -7 -5 -13 -6 -13 -3 0 7 -117 -36
-157 -57 -48 -26 -75 -70 -75 -125 -1 -26 3 -56 7 -67 21 -56 31 -75 37 -75 5
0 8 -6 8 -12 0 -7 137 -148 303 -313 167 -165 316 -316 330 -336 24 -32 27
-42 22 -99 -3 -35 -7 -70 -9 -79 -3 -9 -8 -34 -11 -56 -3 -23 -7 -52 -10 -65
-3 -14 -9 -50 -15 -80 -6 -30 -12 -64 -14 -76 -2 -12 -7 -45 -11 -75 -4 -30
-9 -57 -11 -60 -2 -3 -6 -32 -9 -65 -3 -32 -9 -84 -12 -114 -3 -30 -6 -103 -7
-162 l-1 -107 35 -36 c62 -65 106 -75 215 -51 27 6 179 62 202 75 20 12 135
64 143 66 3 0 117 56 253 125 186 92 257 124 285 123 20 0 67 -14 105 -31 37
-18 72 -32 77 -32 6 0 10 -4 10 -10 0 -5 5 -10 11 -10 15 0 302 -142 310 -153
3 -5 9 -9 12 -8 4 0 64 -28 134 -61 71 -34 134 -63 141 -64 7 -1 24 -9 37 -18
13 -9 33 -16 44 -16 11 0 22 -4 26 -9 9 -16 79 -6 131 20 80 38 124 100 119
164 -7 77 -18 165 -29 215 -5 27 -15 88 -22 135 -2 17 -8 53 -14 80 -5 28 -12
66 -15 85 -3 19 -8 42 -10 50 -2 8 -7 35 -10 60 -2 25 -7 56 -10 70 -3 14 -8
71 -10 126 -5 101 -5 102 27 145 44 61 83 102 321 342 268 270 330 344 343
411 2 11 6 31 8 42 4 19 -29 80 -58 109 -16 16 -80 60 -88 61 -5 1 -10 3 -13
4 -3 1 -9 4 -15 5 -5 1 -11 4 -12 5 -2 1 -12 4 -23 6 -11 1 -31 5 -45 8 -14 3
-37 7 -52 8 -16 1 -28 5 -28 8 0 3 -18 6 -40 7 -22 1 -52 5 -67 8 -55 11 -97
18 -203 31 -8 1 -31 4 -50 7 -19 3 -57 9 -85 12 -27 4 -61 9 -75 11 -14 2 -49
6 -79 10 -120 13 -189 56 -258 162 -38 59 -169 323 -165 335 1 4 -2 7 -8 7 -6
0 -9 3 -8 8 3 9 -54 119 -103 200 -22 35 -39 66 -39 68 0 15 -111 129 -140
144 -36 19 -86 29 -101 19z m140 -864 c55 -110 104 -205 108 -210 5 -6 17 -26
27 -45 30 -55 83 -116 119 -138 37 -23 119 -52 162 -58 17 -2 41 -6 55 -9 14
-3 45 -8 70 -11 25 -3 52 -7 60 -9 8 -2 41 -7 73 -10 32 -4 68 -8 80 -11 12
-3 45 -7 72 -10 28 -3 59 -7 70 -9 11 -2 30 -4 43 -4 12 -1 22 -6 22 -12 0
-13 -61 -73 -160 -159 -118 -102 -242 -225 -287 -282 -24 -32 -41 -58 -38 -58
3 0 1 -9 -5 -21 -32 -59 -27 -149 25 -409 3 -14 9 -51 15 -82 6 -32 13 -70 16
-85 14 -68 16 -113 5 -113 -6 0 -38 14 -71 30 -33 17 -60 27 -60 23 0 -5 -4
-3 -8 2 -10 15 -324 169 -396 195 -60 21 -181 27 -192 8 -3 -4 -12 -8 -20 -8
-21 0 -158 -60 -162 -71 -2 -5 -9 -9 -16 -9 -7 0 -61 -24 -119 -54 -58 -29
-109 -51 -112 -48 -3 3 -5 0 -5 -6 0 -7 -5 -12 -11 -12 -5 0 -35 -12 -64 -26
-78 -36 -78 -37 -59 101 2 22 9 65 14 95 37 217 42 256 45 331 5 138 -35 202
-246 399 -207 194 -263 258 -231 261 4 0 16 2 27 5 11 2 36 7 55 9 19 3 46 8
60 10 14 3 43 8 65 11 22 3 51 8 65 10 28 5 89 14 135 19 17 2 30 4 30 5 0 1
18 3 40 6 22 2 51 6 65 10 14 4 34 8 45 10 51 7 114 45 158 95 26 30 47 59 47
66 0 7 4 13 9 13 5 0 11 8 15 18 3 9 28 60 56 112 27 52 50 100 50 107 0 6 4
13 9 15 7 3 56 94 110 206 12 25 18 29 27 20 7 -7 58 -103 113 -213z"/>
</g>
</svg>
